<?xml version="1.0" encoding="utf-8"?>
<!-- Generator: Adobe Illustrator 23.0.3, SVG Export Plug-In . SVG Version: 6.00 Build 0)  -->
<svg version="1.1" id="Capa_1" xmlns="http://www.w3.org/2000/svg" xmlns:xlink="http://www.w3.org/1999/xlink" x="0px" y="0px"
	 viewBox="0 0 720 720" style="enable-background:new 0 0 720 720;" xml:space="preserve">
<style type="text/css">
	.st0{fill:#EC7728;}
	.st1{opacity:0.48;fill:#CD5F29;}
	.st2{opacity:0.43;fill:#CD5F29;}
	.st3{fill:#FFFFFF;}
</style>
<path class="st0" d="M489.4,256c0,8.49-0.45,16.88-1.34,25.14c-10.49,97.98-81.62,177.82-175.11,201.26c-18.23,4.57-37.31,7-56.95,7
	c-66.38,0-126.3-27.72-168.79-72.21C47.18,375.29,22.6,318.52,22.6,256C22.6,127.1,127.1,22.6,256,22.6
	c62.52,0,119.29,24.58,161.19,64.61C461.68,129.7,489.4,189.62,489.4,256z"/>
<path class="st1" d="M489.4,256c0,8.49-0.45,16.88-1.34,25.14c-10.49,97.98-81.62,177.82-175.11,201.26c-18.23,4.57-37.31,7-56.95,7
	c-66.38,0-126.3-27.72-168.79-72.21l79.93-79.93l159.27-159.27l90.78-90.78C461.68,129.7,489.4,189.62,489.4,256z"/>
<path class="st2" d="M488.06,281.14c-10.49,97.98-81.62,177.82-175.11,201.26L167.14,337.26l13.1-141.5l120.2-34.34l25.97,16.57
	L488.06,281.14z"/>
<path class="st3" d="M358.24,223.41h-21.82c0,0-14-6.37-15.35-27.47c-1.69-26.4-29.89-45.25-54.13-48.48
	c-24.24-3.23-43.99-3.21-58.17,0c-18.82,4.26-53.72,18.23-56.56,52.52c-2.67,32.21-3.93,74.85,0,99.38
	c3.39,21.16,19.54,62.17,59.12,65.62c43.65,3.8,71.95,1.82,95.21-3.41c20.08-4.51,50.9-19.39,55.75-60.6
	C362.28,246.03,358.24,223.41,358.24,223.41z M191.44,215.82c0-7.28,5.9-13.17,13.17-13.17h70.62c7.27,0,13.17,5.9,13.17,13.17
	c0,7.28-5.9,13.17-13.17,13.17h-70.62C197.34,228.99,191.44,223.09,191.44,215.82z M297.05,311.79h-79.6
	c-10.4,0-18.82-8.43-18.82-18.82s8.43-18.82,18.82-18.82h79.6c10.4,0,18.82,8.43,18.82,18.82S307.44,311.79,297.05,311.79z"/>
</svg>
